<svg width="30" height="30" viewBox="0 0 30 30" fill="none" xmlns="http://www.w3.org/2000/svg">
<path d="M22.7125 6.13749L21.375 4.79999L14.4375 11.7375V13.0875H15.7875L22.7125 6.13749V6.13749ZM20 3.42499L21.6125 1.81249C21.7857 1.63712 21.9921 1.49789 22.2195 1.40287C22.447 1.30784 22.691 1.25891 22.9375 1.25891C23.184 1.25891 23.428 1.30784 23.6555 1.40287C23.8829 1.49789 24.0893 1.63712 24.2625 1.81249L25.7 3.24999C26.4375 3.98749 26.4375 5.17499 25.7 5.89999L24.85 6.74999L24.825 6.77499L24.1 7.49999L16.6 15H12.5V10.925L20 3.42499ZM17.15 2.73749L16.4625 3.42499L14.875 5.01249C10.75 5.07499 7.5 8.26249 7.5 12.7625C7.5 15.6875 9.9375 19.5625 15 24.1875C20.0625 19.5625 22.5 15.7 22.5 12.7625V12.6375L24.75 10.3875C24.9125 11.1375 25 11.9375 25 12.7625C25 16.9125 21.6625 21.825 15 27.5125C8.3375 21.825 5 16.9125 5 12.7625C5 6.53749 9.75 2.51249 15 2.51249C15.725 2.51249 16.45 2.58749 17.15 2.73749V2.73749Z" fill="#323232"/>
</svg>
