<svg width="30" height="30" viewBox="0 0 30 30" fill="none" xmlns="http://www.w3.org/2000/svg">
<path d="M15 8.125C19.7375 8.125 23.9625 10.7875 26.025 15C23.9625 19.2125 19.75 21.875 15 21.875C10.25 21.875 6.0375 19.2125 3.975 15C6.0375 10.7875 10.2625 8.125 15 8.125ZM15 5.625C8.75 5.625 3.4125 9.5125 1.25 15C3.4125 20.4875 8.75 24.375 15 24.375C21.25 24.375 26.5875 20.4875 28.75 15C26.5875 9.5125 21.25 5.625 15 5.625ZM15 11.875C16.725 11.875 18.125 13.275 18.125 15C18.125 16.725 16.725 18.125 15 18.125C13.275 18.125 11.875 16.725 11.875 15C11.875 13.275 13.275 11.875 15 11.875ZM15 9.375C11.9 9.375 9.375 11.9 9.375 15C9.375 18.1 11.9 20.625 15 20.625C18.1 20.625 20.625 18.1 20.625 15C20.625 11.9 18.1 9.375 15 9.375Z" fill="#323232"/>
</svg>
