<svg width="30" height="30" viewBox="0 0 30 30" fill="none" xmlns="http://www.w3.org/2000/svg">
<path d="M20.25 7.5C20.25 6.80964 20.8096 6.25 21.5 6.25C22.2959 6.25 23.0781 6.40993 23.8392 6.7144C24.6676 7.04576 25.3053 7.53751 25.8839 8.11612C26.4625 8.69473 26.9542 9.33237 27.2856 10.1608C27.5901 10.9219 27.75 11.7041 27.75 12.5C27.75 13.2959 27.5901 14.0781 27.2856 14.8392C26.9584 15.6572 26.4748 16.2893 25.9056 16.8621L24.6749 18.2158C24.6616 18.2305 24.6479 18.2449 24.6339 18.2589L20.6339 22.2589C20.0553 22.8375 19.4176 23.3292 18.5892 23.6606C17.8281 23.9651 17.0459 24.125 16.25 24.125C15.4541 24.125 14.6719 23.9651 13.9108 23.6606C13.0824 23.3292 12.4447 22.8375 11.8661 22.2589C11.2875 21.6803 10.7958 21.0426 10.4644 20.2142C10.1541 19.4384 10 18.6556 10 17.75C10 16.9541 10.1599 16.1719 10.4644 15.4108C10.7958 14.5824 11.2875 13.9447 11.8661 13.3661L13.2411 11.9911C13.7293 11.503 14.5207 11.503 15.0089 11.9911C15.497 12.4793 15.497 13.2707 15.0089 13.7589L13.6339 15.1339C13.2125 15.5553 12.9542 15.9176 12.7856 16.3392C12.5901 16.8281 12.5 17.2959 12.5 17.75C12.5 18.3444 12.5959 18.8116 12.7856 19.2858C12.9542 19.7074 13.2125 20.0697 13.6339 20.4911C14.0553 20.9125 14.4176 21.1708 14.8392 21.3394C15.3281 21.5349 15.7959 21.625 16.25 21.625C16.7041 21.625 17.1719 21.5349 17.6608 21.3394C18.0824 21.1708 18.4447 20.9125 18.8661 20.4911L22.8451 16.5121L24.0751 15.1592C24.0884 15.1445 24.1021 15.1301 24.1161 15.1161C24.5375 14.6947 24.7958 14.3324 24.9644 13.9108C25.1599 13.4219 25.25 12.9541 25.25 12.5C25.25 12.0459 25.1599 11.5781 24.9644 11.0892C24.7958 10.6676 24.5375 10.3053 24.1161 9.88388C23.6947 9.46249 23.3324 9.20424 22.9108 9.0356C22.4219 8.84007 21.9541 8.75 21.5 8.75C20.8096 8.75 20.25 8.19036 20.25 7.5ZM14.125 9.375C13.6709 9.375 13.2031 9.46507 12.7142 9.6606C12.2926 9.82924 11.9303 10.0875 11.5089 10.5089L7.40492 14.6129L6.17492 15.9658C6.16159 15.9805 6.1479 15.9949 6.13388 16.0089C5.71249 16.4303 5.45424 16.7926 5.2856 17.2142C5.09007 17.7031 5 18.1709 5 18.625C5 19.0791 5.09007 19.5469 5.2856 20.0358C5.45424 20.4574 5.71249 20.8197 6.13388 21.2411C6.55527 21.6625 6.91763 21.9208 7.33924 22.0894C7.82805 22.2849 8.29592 22.375 8.75 22.375C9.44036 22.375 10 22.9346 10 23.625C10 24.3154 9.44036 24.875 8.75 24.875C7.95408 24.875 7.17195 24.7151 6.41076 24.4106C5.58237 24.0792 4.94473 23.5875 4.36612 23.0089C3.78751 22.4303 3.29576 21.7926 2.9644 20.9642C2.65993 20.2031 2.5 19.4209 2.5 18.625C2.5 17.8291 2.65993 17.0469 2.9644 16.2858C3.29161 15.4678 3.7752 14.8357 4.34439 14.2629L5.57508 12.9092C5.58841 12.8945 5.6021 12.8801 5.61612 12.8661L9.74112 8.74112C10.3197 8.16251 10.9574 7.67076 11.7858 7.3394C12.5469 7.03493 13.3291 6.875 14.125 6.875C14.9209 6.875 15.7031 7.03493 16.4642 7.3394C17.2926 7.67076 17.9303 8.16251 18.5089 8.74112C19.0875 9.31973 19.5792 9.95737 19.9106 10.7858C20.2151 11.5469 20.375 12.3291 20.375 13.125C20.375 13.9209 20.2151 14.7031 19.9106 15.4642C19.583 16.2831 19.0987 16.9156 18.5287 17.489L17.1714 18.9697C16.705 19.4786 15.9142 19.5129 15.4053 19.0464C14.8964 18.58 14.8621 17.7892 15.3286 17.2803L16.7036 15.7803C16.7158 15.767 16.7283 15.7539 16.7411 15.7411C17.1625 15.3197 17.4208 14.9574 17.5894 14.5358C17.7849 14.0469 17.875 13.5791 17.875 13.125C17.875 12.6709 17.7849 12.2031 17.5894 11.7142C17.4208 11.2926 17.1625 10.9303 16.7411 10.5089C16.3197 10.0875 15.9574 9.82924 15.5358 9.6606C15.0469 9.46507 14.5791 9.375 14.125 9.375Z" fill="#0D0D0D"/>
</svg>
