<svg width="30" height="30" viewBox="0 0 30 30" fill="none" xmlns="http://www.w3.org/2000/svg">
<path d="M6.875 22.5C7.91053 22.5 8.75 21.6605 8.75 20.625C8.75 19.5895 7.91053 18.75 6.875 18.75C5.83947 18.75 5 19.5895 5 20.625C5 21.6605 5.83947 22.5 6.875 22.5Z" fill="#323232"/>
<path d="M15.625 22.5C16.6605 22.5 17.5 21.6605 17.5 20.625C17.5 19.5895 16.6605 18.75 15.625 18.75C14.5895 18.75 13.75 19.5895 13.75 20.625C13.75 21.6605 14.5895 22.5 15.625 22.5Z" fill="#323232"/>
<path d="M20 1.25C17.0125 1.25 14.3875 2.75 12.8125 5.025C12.3 5.0125 11.7875 5 11.25 5C5.725 5 1.25 5.625 1.25 10V22.5C1.25 23.6 1.7375 24.5875 2.5 25.275V27.5C2.5 28.1875 3.0625 28.75 3.75 28.75H5C5.6875 28.75 6.25 28.1875 6.25 27.5V26.25H16.25V27.5C16.25 28.1875 16.8125 28.75 17.5 28.75H18.75C19.4375 28.75 20 28.1875 20 27.5V25.275C20.7625 24.5875 21.25 23.6 21.25 22.5V18.65C25.4875 18.0375 28.75 14.4125 28.75 10C28.75 5.1625 24.8375 1.25 20 1.25ZM11.25 7.5H11.6125C11.5 7.9 11.4125 8.325 11.35 8.7375H4.175C4.8625 8.075 6.6375 7.5 11.25 7.5ZM3.75 11.2375H11.35C11.55 12.625 12.0625 13.9 12.825 15H3.75V11.2375ZM18.75 22.5C18.75 22.9625 18.4875 23.275 18.325 23.4125L17.9625 23.75H4.5375L4.175 23.4125C4.0125 23.275 3.75 22.9625 3.75 22.5V17.5H15.5125C16.4875 18.0875 17.575 18.4875 18.75 18.65V22.5ZM20 16.25C16.55 16.25 13.75 13.45 13.75 10C13.75 6.55 16.55 3.75 20 3.75C23.45 3.75 26.25 6.55 26.25 10C26.25 13.45 23.45 16.25 20 16.25ZM20.625 5H18.75V11.25L23.275 13.95L24.2125 12.4125L20.625 10.3125V5Z" fill="#323232"/>
</svg>
